<svg width="50" height="50" viewBox="0 0 50 50" fill="none" xmlns="http://www.w3.org/2000/svg">
<path fill-rule="evenodd" clip-rule="evenodd" d="M12.8448 36.641C13.2786 35.631 13.5425 34.4673 13.5425 33.0649C10.3348 30.4418 8.33386 26.7294 8.33386 22.6135C8.33386 14.665 15.7962 8.22144 25.0014 8.22144C34.2067 8.22144 41.669 14.665 41.669 22.6135C41.669 30.562 34.2067 37.0056 25.0014 37.0056C23.5626 37.0056 22.1664 36.8482 20.8345 36.5522C19.9531 37.518 18.2604 38.7654 15.4372 39.7583C13.8117 40.3299 11.8115 40.8171 9.37558 41.1176C10.7176 39.7933 12.0596 38.469 12.8448 36.641ZM21.9685 40.557C22.9599 40.688 23.9728 40.7556 25.0014 40.7556C35.7422 40.7556 45.419 33.1309 45.419 22.6135C45.419 12.0962 35.7422 4.47144 25.0014 4.47144C14.2607 4.47144 4.58386 12.0962 4.58386 22.6135C4.58386 27.2632 6.53964 31.4193 9.61372 34.5491C9.24832 35.9034 8.31486 36.8959 6.74157 38.4485C5.59883 39.5762 5.30073 41.3062 6.00014 42.7513C6.69955 44.1964 8.24129 45.036 9.83468 44.8394C15.6006 44.1282 19.5176 42.4126 21.9685 40.557Z" fill="black"/>
</svg>
