<svg width="24" height="24" viewBox="0 0 24 24" fill="none" xmlns="http://www.w3.org/2000/svg">
<path fill-rule="evenodd" clip-rule="evenodd" d="M16.2099 2.76491C16.4029 2.74324 16.5977 2.74324 16.7907 2.76491C17.3166 2.82395 17.7395 3.06747 18.1189 3.36445C18.474 3.64238 18.8663 4.02957 19.3177 4.47504L19.3884 4.54481C19.8511 5.00133 20.2525 5.39745 20.5406 5.75652C20.8481 6.1397 21.1011 6.5687 21.1623 7.10481C21.1847 7.30107 21.1847 7.49923 21.1623 7.69549C21.1011 8.2316 20.8481 8.6606 20.5406 9.04379C20.2525 9.40285 19.8511 9.79898 19.3884 10.2555L9.06393 20.444C9.03891 20.4687 9.01409 20.4933 8.98943 20.5177C8.63579 20.8677 8.31501 21.1852 7.90607 21.3769C7.82897 21.4131 7.75014 21.4454 7.66987 21.4738C7.24411 21.6246 6.79278 21.6239 6.29522 21.6232C6.26053 21.6232 6.22561 21.6231 6.19046 21.6231H6.08257C5.45373 21.6231 4.90759 21.6232 4.46369 21.5728C3.99001 21.519 3.52198 21.3984 3.10837 21.078C2.93489 20.9436 2.7791 20.7878 2.64471 20.6143C2.32431 20.2007 2.20365 19.7327 2.14988 19.259C2.09949 18.8151 2.09952 18.2689 2.09956 17.6401L2.09956 17.5915C2.09956 17.5571 2.09951 17.5229 2.09946 17.489C2.09877 17.0026 2.09814 16.5616 2.24197 16.1449C2.27803 16.0404 2.32071 15.9383 2.36976 15.8393C2.56536 15.4442 2.87965 15.1349 3.22634 14.7938C3.25053 14.7699 3.27488 14.746 3.29935 14.7218L13.6829 4.47502C14.1342 4.02956 14.5266 3.64238 14.8816 3.36445C15.261 3.06747 15.684 2.82395 16.2099 2.76491ZM16.5899 4.55367C16.5303 4.54699 16.4702 4.54699 16.4107 4.55367C16.3504 4.56044 16.2396 4.58736 15.9911 4.78187C15.7274 4.98826 15.4088 5.30076 14.9122 5.79083L14.4064 6.2899L17.6254 9.46645L18.0884 9.00948C18.597 8.50761 18.922 8.1849 19.1367 7.91732C19.3394 7.66468 19.367 7.55194 19.3739 7.49124C19.3808 7.43071 19.3808 7.36959 19.3739 7.30906C19.367 7.24836 19.3394 7.13563 19.1367 6.88298C18.922 6.6154 18.597 6.2927 18.0884 5.79083C17.5918 5.30076 17.2732 4.98826 17.0095 4.78187C16.761 4.58736 16.6502 4.56044 16.5899 4.55367ZM16.344 10.7309L13.1251 7.55434L4.56368 16.003C4.10095 16.4597 4.02704 16.5487 3.98289 16.6379C3.96777 16.6684 3.9546 16.6999 3.94348 16.7322C3.91102 16.8262 3.89956 16.9414 3.89956 17.5915C3.89956 18.283 3.90091 18.7258 3.9384 19.056C3.97379 19.3678 4.03145 19.4652 4.06769 19.512C4.10914 19.5655 4.15719 19.6135 4.2107 19.655C4.25748 19.6912 4.35485 19.7489 4.6667 19.7843C4.99691 19.8218 5.43969 19.8231 6.1312 19.8231H6.19046C6.85548 19.8231 6.97292 19.8111 7.06905 19.7771C7.09381 19.7683 7.11812 19.7583 7.1419 19.7472C7.23423 19.7039 7.32625 19.6299 7.7996 19.1628L16.344 10.7309Z" fill="black"/>
</svg>
