<svg width="24" height="24" viewBox="0 0 24 24" fill="none" xmlns="http://www.w3.org/2000/svg">
<mask id="mask0_149_23" style="mask-type:luminance" maskUnits="userSpaceOnUse" x="2" y="2" width="20" height="20">
<path d="M22 2.39502L2 2.39502L2 21.605L22 21.605L22 2.39502Z" fill="white"/>
</mask>
<g mask="url(#mask0_149_23)">
<path d="M2.05 10.6049C2.12996 10.9339 2.30365 11.2327 2.55 11.4649L5.85 14.6849C5.88372 14.7198 5.91082 14.7604 5.93 14.8049C5.94104 14.851 5.94104 14.8989 5.93 14.9449L5.15 19.5049C5.085 19.8409 5.12 20.1889 5.25 20.5049C5.37044 20.8176 5.58321 21.0862 5.86 21.2749C6.12895 21.4734 6.44712 21.5945 6.78 21.6249H6.91C7.20292 21.6243 7.49126 21.5522 7.75 21.4149L11.85 19.2749C11.8926 19.2504 11.9408 19.2374 11.99 19.2374C12.0392 19.2374 12.0874 19.2504 12.13 19.2749L16.23 21.4249C16.5379 21.5849 16.8837 21.6576 17.23 21.6349C17.5663 21.6063 17.8882 21.4851 18.16 21.2849C18.4342 21.0891 18.646 20.8182 18.77 20.5049C18.8976 20.1879 18.9323 19.841 18.87 19.5049L18.09 14.9549C18.0755 14.9094 18.0755 14.8605 18.09 14.8149C18.1062 14.7712 18.1298 14.7305 18.16 14.6949L21.46 11.4549C21.6989 11.2224 21.8685 10.9282 21.95 10.6049C22.0473 10.2787 22.0473 9.93118 21.95 9.60494C21.8401 9.28384 21.6421 9.00012 21.3786 8.78617C21.1151 8.57221 20.7968 8.43665 20.46 8.39494L15.96 7.73494C15.9152 7.7338 15.8724 7.71597 15.84 7.68494C15.8016 7.65601 15.7708 7.61829 15.75 7.57494L13.65 3.39494C13.507 3.09494 13.281 2.84194 13 2.66494C12.7864 2.53006 12.5467 2.44192 12.2966 2.4063C12.0465 2.37069 11.7917 2.38842 11.549 2.45831C11.3062 2.52821 11.081 2.6487 10.8882 2.81185C10.6953 2.975 10.5392 3.17713 10.43 3.40494L8.35 7.56494C8.32488 7.61112 8.2909 7.6519 8.25 7.68494C8.21406 7.71664 8.16792 7.73439 8.12 7.73494L3.55 8.39494C3.218 8.44494 2.906 8.58694 2.65 8.80494C2.399 9.02194 2.209 9.30094 2.1 9.61494C1.994 9.93494 1.976 10.2769 2.05 10.6049Z" fill="#FFF186"/>
</g>
</svg>
