<svg width="24" height="24" viewBox="0 0 24 24" fill="none" xmlns="http://www.w3.org/2000/svg">
<path fill-rule="evenodd" clip-rule="evenodd" d="M8.02599 7.03009L9.21599 4.06609C10.224 1.55609 13.776 1.55609 14.784 4.06609L15.974 7.03009L19.161 7.24609C21.859 7.42909 22.957 10.8071 20.881 12.5411L18.431 14.5891L19.21 17.6871C19.87 20.3101 16.996 22.3971 14.705 20.9601L12 19.2621L9.29499 20.9601C7.00499 22.3981 4.12999 20.3101 4.78999 17.6871L5.56999 14.5891L3.11799 12.5411C1.04299 10.8071 2.14099 7.42909 4.83799 7.24609L8.02599 7.03009ZM11.072 4.81009C11.408 3.97409 12.592 3.97409 12.928 4.81009L14.352 8.35909C14.4221 8.53359 14.5399 8.68479 14.6921 8.79534C14.8442 8.9059 15.0244 8.97132 15.212 8.98409L19.026 9.24209C19.926 9.30309 20.291 10.4301 19.6 11.0081L16.666 13.4581C16.5218 13.5787 16.4146 13.7376 16.3565 13.9164C16.2985 14.0952 16.2921 14.2868 16.338 14.4691L17.27 18.1761C17.49 19.0501 16.532 19.7461 15.769 19.2671L12.532 17.2351C12.3726 17.135 12.1882 17.0818 12 17.0818C11.8118 17.0818 11.6274 17.135 11.468 17.2351L8.23099 19.2671C7.46799 19.7471 6.50999 19.0501 6.72999 18.1771L7.66199 14.4701C7.70808 14.2876 7.70175 14.0959 7.64373 13.9169C7.58571 13.7378 7.47835 13.5788 7.33399 13.4581L4.39999 11.0081C3.70899 10.4291 4.07499 9.30309 4.97399 9.24209L8.78699 8.98409C8.9746 8.97132 9.15481 8.9059 9.30693 8.79534C9.45904 8.68479 9.57691 8.53359 9.64699 8.35909L11.073 4.81009H11.072Z" fill="#FFF186"/>
</svg>
