<svg width="100" height="100" viewBox="0 0 100 100" fill="none" xmlns="http://www.w3.org/2000/svg">
<path d="M71.736 80.5511C66.3955 74.5867 58.6361 70.8333 50 70.8333C41.3639 70.8333 33.6038 74.5867 28.2633 80.5511M50 87.5C29.2893 87.5 12.5 70.7107 12.5 50C12.5 29.2893 29.2893 12.5 50 12.5C70.7107 12.5 87.5 29.2893 87.5 50C87.5 70.7107 70.7107 87.5 50 87.5ZM50 58.3333C43.0964 58.3333 37.5 52.7369 37.5 45.8333C37.5 38.9298 43.0964 33.3333 50 33.3333C56.9036 33.3333 62.5 38.9298 62.5 45.8333C62.5 52.7369 56.9036 58.3333 50 58.3333Z" stroke="black" stroke-width="3" stroke-linecap="round" stroke-linejoin="round"/>
</svg>
